<?xml version="1.0" encoding="UTF-8" standalone="no"?>
<!DOCTYPE svg PUBLIC "-//W3C//DTD SVG 1.1//EN" "http://www.w3.org/Graphics/SVG/1.1/DTD/svg11.dtd">
<svg width="100%" height="100%" viewBox="0 0 1487 598" version="1.1" xmlns="http://www.w3.org/2000/svg" xmlns:xlink="http://www.w3.org/1999/xlink" xml:space="preserve" xmlns:serif="http://www.serif.com/" style="fill-rule:evenodd;clip-rule:evenodd;stroke-linejoin:round;stroke-miterlimit:2;">
    <g id="Mesa-de-trabajo1" serif:id="Mesa de trabajo1" transform="matrix(0.543464,0,0,0.489288,51.0307,45.7451)">
        <rect x="-93.899" y="-93.493" width="2735.95" height="1220.55" style="fill:none;"/>
        <g transform="matrix(0.940211,0,0,0.940211,12.7863,20.9793)">
            <rect x="-93.899" y="-93.493" width="2735.95" height="1220.55" style="fill:none;"/>
        </g>
        <g transform="matrix(-2.93033,0,0,3.36733,1884.6,-7889.81)">
            <path d="M653.907,2353.1L653.907,2494.54C653.907,2506.41 643.938,2516.04 631.659,2516.04L587.162,2516.04C574.883,2516.04 564.914,2506.41 564.914,2494.54L564.914,2353.1C564.914,2341.23 574.883,2331.59 587.162,2331.59L631.659,2331.59C643.938,2331.59 653.907,2341.23 653.907,2353.1Z" style="fill:rgb(183,64,191);"/>
        </g>
        <g transform="matrix(-2.93033,0,0,3.36733,2222.95,-7889.81)">
            <path d="M653.907,2353.1L653.907,2494.54C653.907,2506.41 643.938,2516.04 631.659,2516.04L587.162,2516.04C574.883,2516.04 564.914,2506.41 564.914,2494.54L564.914,2353.1C564.914,2341.23 574.883,2331.59 587.162,2331.59L631.659,2331.59C643.938,2331.59 653.907,2341.23 653.907,2353.1Z" style="fill:rgb(217,38,165);"/>
        </g>
        <g transform="matrix(-2.93033,0,0,3.36733,2559.69,-7889.81)">
            <path d="M653.907,2353.1L653.907,2494.54C653.907,2506.41 643.938,2516.04 631.659,2516.04L587.162,2516.04C574.883,2516.04 564.914,2506.41 564.914,2494.54L564.914,2353.1C564.914,2341.23 574.883,2331.59 587.162,2331.59L631.659,2331.59C643.938,2331.59 653.907,2341.23 653.907,2353.1Z" style="fill:rgb(242,13,94);"/>
        </g>
        <g transform="matrix(8.14015,0,0,9.04146,-1760.35,-8391.58)">
            <path d="M231.728,1025.57L218.278,1025.57L218.278,1040.32L212.378,1040.32L212.378,1003.32L232.078,1003.32C233.378,1003.32 234.753,1003.47 236.203,1003.77C237.653,1004.07 238.978,1004.63 240.178,1005.45C241.378,1006.26 242.37,1007.39 243.153,1008.82C243.937,1010.25 244.328,1012.1 244.328,1014.37C244.328,1016.04 244.07,1017.55 243.553,1018.92C243.037,1020.29 242.253,1021.46 241.203,1022.45C240.153,1023.43 238.845,1024.19 237.278,1024.75C235.712,1025.3 233.862,1025.57 231.728,1025.57ZM231.178,1008.72L218.278,1008.72L218.278,1020.17L231.678,1020.17C232.612,1020.17 233.487,1020.08 234.303,1019.89C235.12,1019.71 235.837,1019.4 236.453,1018.97C237.07,1018.54 237.553,1017.95 237.903,1017.22C238.253,1016.49 238.428,1015.57 238.428,1014.47C238.428,1013.04 238.195,1011.94 237.728,1011.17C237.262,1010.4 236.67,1009.84 235.953,1009.47C235.237,1009.1 234.453,1008.89 233.603,1008.82C232.753,1008.75 231.945,1008.72 231.178,1008.72Z" style="fill:white;fill-rule:nonzero;"/>
            <rect x="245.678" y="1003.32" width="5.8" height="37" style="fill:white;"/>
            <path d="M281.728,1040.32L269.528,1025.97L257.178,1040.32L249.578,1040.32L265.678,1021.52L250.128,1003.32L257.878,1003.32L269.528,1017.07L281.428,1003.32L288.978,1003.32L273.428,1021.52L289.478,1040.32L281.728,1040.32Z" style="fill:white;fill-rule:nonzero;"/>
            <path d="M287.478,1040.32L287.478,1003.32L318.178,1003.32L318.178,1008.72L293.378,1008.72L293.378,1018.47L317.178,1018.47L317.178,1023.87L293.378,1023.87L293.378,1034.87L318.478,1034.87L318.478,1040.32L287.478,1040.32Z" style="fill:white;fill-rule:nonzero;"/>
            <path d="M319.878,1040.32L319.878,1003.32L325.778,1003.32L325.778,1034.87L348.078,1034.87L348.078,1040.32L319.878,1040.32Z" style="fill:white;fill-rule:nonzero;"/>
            <rect x="348.528" y="1003.32" width="5.8" height="37" style="fill:white;"/>
            <path d="M376.578,1041.12C374.012,1041.12 371.728,1040.8 369.728,1040.17C367.728,1039.54 365.978,1038.7 364.478,1037.67C362.978,1036.64 361.712,1035.45 360.678,1034.12C359.645,1032.79 358.812,1031.4 358.178,1029.97C357.545,1028.54 357.087,1027.11 356.803,1025.69C356.52,1024.28 356.378,1022.99 356.378,1021.82C356.378,1020.65 356.52,1019.36 356.803,1017.95C357.087,1016.53 357.545,1015.1 358.178,1013.67C358.812,1012.24 359.645,1010.85 360.678,1009.52C361.712,1008.19 362.978,1007 364.478,1005.97C365.978,1004.94 367.728,1004.1 369.728,1003.47C371.728,1002.84 374.012,1002.52 376.578,1002.52C379.145,1002.52 381.428,1002.84 383.428,1003.47C385.428,1004.1 387.178,1004.94 388.678,1005.97C390.178,1007 391.445,1008.19 392.478,1009.52C393.512,1010.85 394.345,1012.24 394.978,1013.67C395.612,1015.1 396.07,1016.53 396.353,1017.95C396.637,1019.36 396.778,1020.65 396.778,1021.82C396.778,1022.99 396.637,1024.28 396.353,1025.69C396.07,1027.11 395.612,1028.54 394.978,1029.97C394.345,1031.4 393.512,1032.79 392.478,1034.12C391.445,1035.45 390.178,1036.64 388.678,1037.67C387.178,1038.7 385.428,1039.54 383.428,1040.17C381.428,1040.8 379.145,1041.12 376.578,1041.12ZM376.578,1007.92C374.278,1007.92 372.245,1008.3 370.478,1009.07C368.712,1009.84 367.228,1010.86 366.028,1012.14C364.828,1013.43 363.912,1014.91 363.278,1016.6C362.645,1018.28 362.328,1020.02 362.328,1021.82C362.328,1023.62 362.645,1025.35 363.278,1027.02C363.912,1028.69 364.828,1030.16 366.028,1031.44C367.228,1032.73 368.712,1033.75 370.478,1034.52C372.245,1035.29 374.278,1035.67 376.578,1035.67C378.878,1035.67 380.912,1035.29 382.678,1034.52C384.445,1033.75 385.928,1032.73 387.128,1031.44C388.328,1030.16 389.245,1028.69 389.878,1027.02C390.512,1025.35 390.828,1023.62 390.828,1021.82C390.828,1020.02 390.512,1018.28 389.878,1016.6C389.245,1014.91 388.328,1013.43 387.128,1012.14C385.928,1010.86 384.445,1009.84 382.678,1009.07C380.912,1008.3 378.878,1007.92 376.578,1007.92Z" style="fill:white;fill-rule:nonzero;"/>
            <path d="M417.428,1041.12C414.562,1041.12 411.895,1040.69 409.428,1039.82C406.962,1038.95 404.82,1037.69 403.003,1036.05C401.187,1034.39 399.762,1032.37 398.728,1029.97C397.695,1027.57 397.178,1024.85 397.178,1021.82C397.178,1019.62 397.578,1017.38 398.378,1015.1C399.178,1012.81 400.403,1010.74 402.053,1008.87C403.703,1007 405.803,1005.48 408.353,1004.3C410.903,1003.11 413.928,1002.52 417.428,1002.52C419.662,1002.52 421.778,1002.8 423.778,1003.35C425.778,1003.89 427.587,1004.76 429.203,1005.95C430.82,1007.13 432.22,1008.66 433.403,1010.55C434.587,1012.43 435.495,1014.69 436.128,1017.32L430.078,1017.32C429.612,1015.62 428.978,1014.18 428.178,1013C427.378,1011.81 426.428,1010.85 425.328,1010.1C424.228,1009.35 423.012,1008.8 421.678,1008.45C420.345,1008.1 418.928,1007.92 417.428,1007.92C415.228,1007.92 413.245,1008.29 411.478,1009.02C409.712,1009.75 408.212,1010.75 406.978,1012.02C405.745,1013.29 404.795,1014.76 404.128,1016.45C403.462,1018.13 403.128,1019.92 403.128,1021.82C403.128,1023.72 403.428,1025.51 404.028,1027.19C404.628,1028.88 405.528,1030.35 406.728,1031.6C407.928,1032.85 409.42,1033.84 411.203,1034.57C412.987,1035.3 415.062,1035.67 417.428,1035.67C420.828,1035.67 423.687,1034.73 426.003,1032.85C428.32,1030.96 429.845,1028.04 430.578,1024.07L436.478,1024.07C436.178,1026.34 435.553,1028.5 434.603,1030.57C433.653,1032.64 432.378,1034.45 430.778,1036.02C429.178,1037.59 427.262,1038.83 425.028,1039.75C422.795,1040.66 420.262,1041.12 417.428,1041.12Z" style="fill:white;fill-rule:nonzero;"/>
            <path d="M467.328,1040.32L462.278,1029.52L445.578,1029.52L440.528,1040.32L433.978,1040.32L451.478,1003.32L456.378,1003.32L473.878,1040.32L467.328,1040.32ZM453.928,1011.82L448.128,1024.12L459.728,1024.12L453.928,1011.82Z" style="fill:white;fill-rule:nonzero;"/>
            <path d="M501.228,1040.32C500.462,1039.65 499.945,1038.58 499.678,1037.1C499.412,1035.61 499.245,1033.52 499.178,1030.82C499.145,1029.62 499.037,1028.65 498.853,1027.92C498.67,1027.19 498.337,1026.6 497.853,1026.17C497.37,1025.74 496.678,1025.44 495.778,1025.3C494.878,1025.14 493.678,1025.07 492.178,1025.07L478.728,1025.07L478.728,1040.32L472.828,1040.32L472.828,1003.32L492.228,1003.32C493.928,1003.32 495.587,1003.48 497.203,1003.8C498.82,1004.11 500.253,1004.67 501.503,1005.47C502.753,1006.27 503.753,1007.35 504.503,1008.72C505.253,1010.09 505.628,1011.84 505.628,1013.97C505.628,1015.5 505.287,1017 504.603,1018.45C503.92,1019.89 502.845,1021.12 501.378,1022.12C502.578,1022.92 503.478,1023.94 504.078,1025.17C504.678,1026.4 505.012,1027.75 505.078,1029.22C505.112,1030.79 505.162,1032.1 505.228,1033.14C505.295,1034.19 505.395,1035.11 505.528,1035.89C505.662,1036.68 505.845,1037.4 506.078,1038.07C506.312,1038.74 506.628,1039.49 507.028,1040.32L501.228,1040.32ZM492.428,1008.72L478.728,1008.72L478.728,1019.67L492.728,1019.67C493.095,1019.67 493.512,1019.64 493.978,1019.57C494.412,1019.5 494.853,1019.42 495.303,1019.32C495.753,1019.22 496.195,1019.09 496.628,1018.92C497.428,1018.55 498.145,1018 498.778,1017.25C499.412,1016.5 499.728,1015.35 499.728,1013.82C499.728,1011.89 499.087,1010.55 497.803,1009.82C496.52,1009.09 494.728,1008.72 492.428,1008.72Z" style="fill:white;fill-rule:nonzero;"/>
            <path d="M524.028,1008.72L524.028,1040.32L518.128,1040.32L518.128,1008.72L504.278,1008.72L504.278,1003.32L537.878,1003.32L537.878,1008.72L524.028,1008.72Z" style="fill:white;fill-rule:nonzero;"/>
        </g>
    </g>
</svg>
