<?xml version="1.0" encoding="utf-8"?>
<!-- Generator: Adobe Illustrator 16.0.0, SVG Export Plug-In . SVG Version: 6.00 Build 0)  -->
<!DOCTYPE svg PUBLIC "-//W3C//DTD SVG 1.1//EN" "http://www.w3.org/Graphics/SVG/1.1/DTD/svg11.dtd">
<svg version="1.1" id="Layer_1" xmlns="http://www.w3.org/2000/svg" xmlns:xlink="http://www.w3.org/1999/xlink" x="0px" y="0px"
	 width="259.452px" height="175.823px" viewBox="0 0 259.452 175.823" enable-background="new 0 0 259.452 175.823"
	 xml:space="preserve">
<g>
	<path fill="#BBBDBF" d="M133.313,168.542l43.213-42.235c0.128-0.072,0.243-0.162,0.369-0.239c-3.957,2.41-9.216,1.937-12.632-1.477
		l-23.292-23.302l-57.312,30.574l13.363,13.391l23.285,23.288c0,0,3.512,1.62,6.84,1.497
		C131.602,169.872,133.313,168.542,133.313,168.542z"/>
</g>
<g>
	<path fill="#BBBDBF" d="M222.778,7.276c0,0-2.833-2.303-7.593-1.996c-3.767,0.239-6.288,2.48-6.288,2.48L164.88,50.679
		c-0.172,0.145-0.339,0.297-0.504,0.454c0.003,0.002,0.003,0.003,0.008,0.006c4.012-3.893,10.472-3.869,14.438,0.094l24.387,24.385
		l54.824-28.833L222.778,7.276z"/>
</g>
<path fill="#00A14B" d="M134.806,80.704c0.023-0.025,0.042-0.051,0.065-0.071l24.971-24.972l2.626-2.627l0.028-0.028l1.767-1.768
	c0.199-0.2,0.408-0.378,0.617-0.556l44.017-42.919c0,0,2.521-2.241,6.288-2.48c4.76-0.308,7.593,1.996,7.593,1.996
	C218.773,3.275,210.866,0,205.208,0H137.88c-5.661,0-13.566,3.275-17.568,7.278L3.001,124.585c-4.001,4.003-4.003,10.554,0,14.557
	l29.4,29.401c4.002,4.003,10.552,4.003,14.556,0l29.399-29.401c1.354-1.354,7.303-7.277,7.303-7.277L134.806,80.704z"/>
<path fill="#F6921E" d="M249.804,54.685l-30.14,29.458l-17.464,17.069l-23.379,23.38c-0.696,0.692-1.472,1.261-2.296,1.716
	l-43.213,42.235c0,0-1.711,1.331-6.165,1.498c-3.329,0.123-6.84-1.498-6.84-1.498c4.002,4.003,11.91,7.279,17.573,7.279h67.327
	c5.658,0,13.565-3.276,17.57-7.279l29.396-29.401c4.004-4.003,7.277-11.909,7.277-17.573V54.246c0-2.258-0.536-4.873-1.419-7.459
	L249.804,54.685z"/>
</svg>
