<?xml version="1.0" encoding="utf-8"?>
<!-- Generator: Adobe Illustrator 16.0.0, SVG Export Plug-In . SVG Version: 6.00 Build 0)  -->
<!DOCTYPE svg PUBLIC "-//W3C//DTD SVG 1.1//EN" "http://www.w3.org/Graphics/SVG/1.1/DTD/svg11.dtd">
<svg version="1.1" id="Layer_1" xmlns="http://www.w3.org/2000/svg" xmlns:xlink="http://www.w3.org/1999/xlink" x="0px" y="0px"
	 width="265px" height="63px" viewBox="0 0 265 63" enable-background="new 0 0 265 63" xml:space="preserve">
<path fill="#D52B1E" d="M9.915,34.5l1.311-4.815c-2.552-1.656-4.546-4.043-5.722-6.852c-1.176-2.808-1.478-5.906-0.867-8.889
	c0.61-2.983,2.105-5.712,4.289-7.831c2.184-2.119,4.956-3.529,7.952-4.046c2.997-0.517,6.08-0.117,8.846,1.148
	c2.767,1.265,5.087,3.335,6.66,5.941c1.572,2.606,2.323,5.626,2.154,8.667s-1.25,5.958-3.101,8.374l1.057,3.418
	c2.341-2.946,3.715-6.545,3.934-10.303c0.218-3.758-0.729-7.493-2.713-10.691c-1.984-3.198-4.907-5.704-8.369-7.173
	c-3.461-1.47-7.292-1.832-10.968-1.036c-3.675,0.795-7.015,2.709-9.562,5.479c-2.546,2.77-4.175,6.261-4.663,9.994
	c-0.487,3.733,0.19,7.525,1.939,10.858c1.749,3.333,4.485,6.042,7.833,7.757"/>
<path fill="#FFFFFF" d="M33.647,46.408c0,0,0.143,0.242,0.317,0.164c0.174-0.08,0.042-0.318,0.042-0.318l-5.692-21.908
	c0,0-2.786,2.487-3.811,3.477c-1.501,1.456-2.553,2.815-0.528,5.154L33.647,46.408z"/>
<path fill="#FFFFFF" d="M6.442,61.765c0,0-0.19,0.328-0.481,0.212c-0.291-0.117-0.143-0.455-0.143-0.455l5.011-18.596
	c0.274-1.018,0.628-2.012,1.057-2.975c0.413-0.537,0.869-1.039,1.364-1.503l6.823-6.292c0,0,2.5,1.741,0.962,4.334L6.442,61.765z"/>
<path fill="#FFFFFF" d="M26.062,12.703c0,0-3.985-1.36-5.286-1.751c-2.759-0.826-1.982-3.112-1.982-3.112l1.258-3.969
	c0,0,1.475,0.434,1.897,0.566c2.352,0.741,2.352,1.386,2.659,2.508C24.989,8.327,26.062,12.703,26.062,12.703z"/>
<path fill="#FFFFFF" d="M32.229,18.179c0.107-0.069,0.19-0.169,0.239-0.286c0.048-0.118,0.06-0.248,0.033-0.372
	c-0.027-0.125-0.091-0.237-0.185-0.324c-0.093-0.087-0.21-0.143-0.336-0.161L8.873,9.188C8.281,8.992,8.075,9.252,8.418,9.776
	l7.505,11.515c0.358,0.621,0.477,1.351,0.333,2.053l-3.14,11.812c-0.164,0.607,0.079,0.756,0.528,0.328L32.229,18.179z"/>
<path fill="#FFFFFF" d="M59.55,21.578v7.038h8.499v4.636H59.55v8.129h7.447l0.967-3.493h3.874v8.425H49.867v-3.668l3.155-1.059
	V21.578l-3.155-1.26v-3.503l9.683-0.212h11.776v8.139H67.42l-1.057-3.165H59.55z"/>
<path fill="#FFFFFF" d="M74.99,13.994l9.72-0.333v28.227l4.001,1.054v3.37H74.99v-3.37l3.367-1.054V18.206l-3.367-0.842V13.994z"/>
<path fill="#FFFFFF" d="M104.778,46.313v-3.668l3.456-1.059V21.578h-4.001l-1.052,4.006h-3.869V16.73l24.403-0.127v8.98h-3.912
	l-1.051-4.006h-3.996v20.008l3.488,1.059v3.668H104.778z"/>
<path fill="#FFFFFF" d="M125.613,23.896l8.706-0.339l0.381,2.911c0.227-0.259,0.529-0.561,0.93-0.931
	c0.66-0.552,1.368-1.044,2.115-1.471c0.831-0.555,1.797-0.875,2.796-0.926c0.658,0,1.313,0.062,1.96,0.185
	c0.48,0.084,0.95,0.219,1.4,0.402l0.429,0.169l-0.343,8.007h-3.653l-0.634-3.583c-0.78,0.013-1.545,0.214-2.23,0.587
	c-0.629,0.308-1.211,0.703-1.729,1.175l-0.576,0.614v11.192l3.996,1.059v3.371h-13.547v-3.376l3.367-1.059V28.124l-3.367-0.847
	V23.896z"/>
<path fill="#FFFFFF" d="M146.227,23.894l9.557-0.338v18.331l2.949,1.059v3.371h-12.506v-3.377l3.373-1.059V28.122l-3.373-0.847
	V23.894z M148.795,16.602c-0.025-0.508,0.057-1.015,0.238-1.49c0.183-0.475,0.461-0.906,0.818-1.267
	c0.336-0.333,0.733-0.596,1.17-0.772c0.438-0.177,0.906-0.266,1.379-0.259c2.356,0,3.533,1.263,3.531,3.789
	c0.027,0.516-0.052,1.031-0.233,1.515c-0.183,0.483-0.464,0.922-0.824,1.29c-0.319,0.329-0.702,0.589-1.125,0.766
	c-0.422,0.177-0.875,0.268-1.333,0.266c-0.49,0.029-0.98-0.043-1.441-0.214c-0.459-0.17-0.879-0.435-1.233-0.776
	C149.064,18.661,148.725,17.639,148.795,16.602"/>
<path fill="#FFFFFF" d="M159.398,13.994l9.34-0.333v11.706c1.701-1.397,3.824-2.182,6.025-2.228c2.818,0,4.955,0.966,6.41,2.9
	c1.456,1.933,2.196,4.685,2.221,8.255c0,4.027-1.058,7.113-3.108,9.277c-2.05,2.164-5.104,3.244-9.091,3.244
	c-1.412,0-2.824-0.077-4.229-0.233c-1.431-0.151-2.525-0.3-3.281-0.444l-1.138-0.249V18.206l-3.171-0.842L159.398,13.994z
	 M168.738,30.001v11.542c1.015,0.273,2.066,0.391,3.117,0.344c3.34,0,5.01-2.388,5.006-7.165c0-4.413-1.369-6.609-4.123-6.609
	c-0.729-0.002-1.45,0.153-2.113,0.455c-0.54,0.23-1.031,0.561-1.449,0.974L168.738,30.001z"/>
<path fill="#FFFFFF" d="M188.605,39.189v-11.14l-3.07-0.756v-3.397l9.297-0.339v14.452c-0.066,0.884,0.116,1.768,0.529,2.551
	c0.205,0.282,0.48,0.505,0.798,0.649c0.317,0.144,0.668,0.203,1.015,0.171c0.838-0.013,1.661-0.208,2.415-0.571
	c0.692-0.29,1.338-0.679,1.919-1.154l0.629-0.592V28.049l-3.113-0.756v-3.397l9.303-0.339v18.331l3.172,0.841v3.281l-8.547,0.303
	l-0.424-2.948c-0.084,0.079-0.221,0.201-0.401,0.349c-0.179,0.148-0.528,0.435-1.058,0.826c-0.518,0.386-1.064,0.729-1.637,1.027
	c-0.652,0.336-1.336,0.607-2.041,0.809c-0.744,0.226-1.517,0.346-2.293,0.355c-2.115,0-3.701-0.662-4.822-1.98
	c-1.119-1.316-1.658-3.174-1.658-5.561"/>
<path fill="#FFFFFF" d="M213.898,23.895l8.711-0.338l0.295,2.911c0.307-0.26,0.714-0.529,1.222-0.905
	c0.888-0.56,1.821-1.041,2.791-1.439c1.166-0.555,2.435-0.861,3.726-0.899c2.024,0,3.573,0.662,4.651,2s1.617,3.175,1.617,5.493
	v11.171c0.364,0.111,0.888,0.291,1.56,0.529s1.141,0.424,1.391,0.529v3.371h-11.364V42.94l2.229-1.059V31.695
	c0.039-0.875-0.236-1.734-0.776-2.423c-0.248-0.311-0.566-0.559-0.929-0.724c-0.36-0.166-0.756-0.244-1.153-0.229
	c-0.806,0.003-1.595,0.214-2.294,0.614c-0.616,0.304-1.178,0.708-1.66,1.196l-0.527,0.587v11.171l2.188,1.059v3.371h-11.676V42.94
	l3.234-1.059V28.123l-3.234-0.847V23.895z"/>
<path fill="#FFFFFF" d="M253.661,23.139c3.394,0,6.009,0.99,7.849,2.969s2.758,4.778,2.754,8.398c0,3.771-1.017,6.75-3.05,8.938
	c-2.032,2.188-4.763,3.283-8.188,3.287c-7.155,0-10.732-3.861-10.729-11.584c0-3.769,1.025-6.71,3.076-8.827
	c2.051-2.117,4.813-3.175,8.288-3.175V23.139z M253.449,27.991c-1.586,0-2.77,0.529-3.51,1.556
	c-0.739,1.026-1.121,2.836-1.121,5.392c0,2.413,0.35,4.181,1.058,5.292c0.709,1.111,1.824,1.673,3.367,1.673
	c0.666,0.041,1.331-0.092,1.929-0.387s1.107-0.742,1.48-1.297c0.726-1.097,1.089-2.938,1.089-5.52c0-2.271-0.353-3.963-1.058-5.075
	c-0.342-0.547-0.826-0.991-1.399-1.284c-0.575-0.292-1.218-0.423-1.861-0.378"/>
</svg>
