<?xml version="1.0" encoding="UTF-8"?>
<!DOCTYPE svg PUBLIC "-//W3C//DTD SVG 1.1//EN" "http://www.w3.org/Graphics/SVG/1.1/DTD/svg11.dtd">
<!-- Creator: CorelDRAW 2026 -->
<svg xmlns="http://www.w3.org/2000/svg" xml:space="preserve" width="122.835mm" height="8.4962mm" version="1.1" style="shape-rendering:geometricPrecision; text-rendering:geometricPrecision; image-rendering:optimizeQuality; fill-rule:evenodd; clip-rule:evenodd"
viewBox="0 0 12283.54 849.62"
 xmlns:xlink="http://www.w3.org/1999/xlink"
 xmlns:xodm="http://www.corel.com/coreldraw/odm/2003">
 <defs>
  <style type="text/css">
   <![CDATA[
    .fil0 {fill:white;fill-rule:nonzero}
   ]]>
  </style>
 </defs>
 <g id="Capa_x0020_1">
  <metadata id="CorelCorpID_0Corel-Layer"/>
  <path class="fil0" d="M11129.17 328.07c22.58,7.2 45.62,16.65 69.04,28.26 10.83,5.4 21.63,11.18 32.32,17.36 4.09,-40.11 -1.31,-81.07 -16.44,-119.56l-27.62 -70.24 -57.3 144.18zm-160.76 104.04c-52.07,22.05 -59.72,49.85 -60.96,68.86 -1.41,21.55 5.22,38.59 13.34,51.12l47.62 -119.98zm119.63 -0.46l-64.95 163.41c4.94,-0.89 9.81,-1.84 14.57,-2.83 64.99,-13.54 121.32,-53.65 156.46,-110.91 -14.96,-9.49 -30.06,-18.03 -45.3,-25.58 -20.88,-10.4 -41.27,-18.45 -60.78,-24.09zm-166.3 418.5l-103.12 -40.96 57.51 -144.74c-4.59,-3.5 -9.03,-7.16 -13.34,-11.01 -45.89,-41.13 -69.99,-99.34 -66.07,-159.63 3.31,-51.72 28.61,-122.27 130.07,-164.57 27.94,-11.64 58.06,-17.85 89.92,-18.66l105.94 -266.63c10.51,-26.39 35.59,-43.43 63.99,-43.43l0.11 0c28.47,0.03 53.58,17.18 63.99,43.64l66.61 169.37c29.17,74.19 33.16,154.72 12.7,230.11 118.74,99.13 215.58,239.36 250.01,372.08l-107.42 27.87c-26.35,-101.6 -99.77,-211.67 -190.25,-294.32 -51.4,77.96 -130.81,132.57 -222.08,151.62 -6.14,1.27 -12.34,2.47 -18.73,3.6 -20.74,3.63 -41.91,4.05 -62.55,1.51l-57.29 144.15z"/>
  <path class="fil0" d="M2236.91 328.07c22.58,7.2 45.62,16.65 69.04,28.26 10.83,5.4 21.59,11.18 32.32,17.36 4.09,-40.11 -1.31,-81.07 -16.44,-119.56l-27.63 -70.24 -57.29 144.18zm-160.72 104.04c-52.11,22.05 -59.76,49.85 -61,68.86 -1.41,21.55 5.22,38.59 13.34,51.12l47.66 -119.98zm119.59 -0.46l-64.95 163.41c4.91,-0.89 9.81,-1.84 14.61,-2.83 64.98,-13.54 121.28,-53.65 156.42,-110.91 -14.96,-9.49 -30.09,-18.03 -45.26,-25.58 -20.92,-10.4 -41.31,-18.45 -60.82,-24.09zm-166.3 418.5l-103.12 -40.96 57.51 -144.74c-4.59,-3.5 -9.04,-7.16 -13.34,-11.01 -45.9,-41.13 -69.99,-99.34 -66.07,-159.63 3.31,-51.72 28.61,-122.27 130.06,-164.57 27.94,-11.64 58.07,-17.85 89.93,-18.66l105.94 -266.63c10.51,-26.39 35.59,-43.43 63.99,-43.43l0.11 0c28.47,0.03 53.55,17.18 63.99,43.64l66.6 169.37c29.18,74.19 33.17,154.72 12.7,230.11 118.75,99.13 215.55,239.36 250.02,372.08l-107.42 27.87c-26.35,-101.6 -99.77,-211.67 -190.26,-294.32 -51.36,77.96 -130.81,132.57 -222.07,151.62 -6.17,1.27 -12.35,2.43 -18.7,3.6 -20.81,3.63 -41.91,4.05 -62.58,1.51l-57.29 144.15z"/>
  <polygon class="fil0" points="-7.14,38.02 137.96,38.02 137.96,352.42 483.93,352.42 483.93,38.02 630.08,38.02 630.08,820.34 483.93,820.34 483.93,473.35 137.96,473.35 137.96,820.34 -7.14,820.34 "/>
  <polygon class="fil0" points="891.8,38.04 1037.96,38.04 1037.96,820.36 891.8,820.36 "/>
  <polygon class="fil0" points="1301.87,38.02 1446.96,38.02 1446.96,693.1 1827.61,693.1 1827.61,820.34 1301.87,820.34 "/>
  <path class="fil0" d="M2811.65 38.02l149.33 0 259.72 410.11c42.05,68.33 97.79,181.89 97.79,181.89l3.14 0c0,0 -8.4,-121.96 -8.4,-199.78l0 -392.22 137.73 0 0 782.32 -149.3 0 -258.69 -407.98c-43.11,-69.4 -98.82,-182.95 -98.82,-182.95l-2.11 0c0,0 7.37,121.95 7.37,199.77l0 391.16 -137.76 0 0 -782.32z"/>
  <path class="fil0" d="M4003.97 696.25c154.59,0 223.98,-98.84 223.98,-262.85 0,-162.98 -66.25,-271.29 -219.78,-271.29l-148.24 0 0 534.14 144.04 0zm-290.23 -658.24l308.12 0c226.06,0 355.38,157.72 355.38,395.39 0,233.4 -127.21,386.93 -363.82,386.93l-299.68 0 0 -782.32z"/>
  <path class="fil0" d="M5196.3 431.29c0,-162.98 -79.94,-288.11 -234.5,-288.11 -155.61,0 -237.63,125.13 -237.63,288.11 0,161.93 82.02,283.88 237.63,283.88 154.56,0 234.5,-121.95 234.5,-283.88zm-620.4 0c0,-234.49 148.27,-408.02 384.85,-408.02 236.6,0 384.84,173.53 384.84,408.02 0,233.44 -148.24,406.93 -384.84,406.93 -236.58,0 -384.85,-173.49 -384.85,-406.93z"/>
  <path class="fil0" d="M5926.94 431.29c0,-232.41 145.13,-408.02 377.51,-408.02 89.36,0 162.98,23.18 216.6,64.17 63.08,49.42 100.93,119.87 110.42,201.89l-145.13 0c-13.65,-84.13 -79.9,-143.01 -182.95,-143.01 -149.3,0 -228.18,121.99 -228.18,284.97 0,166.13 89.4,282.86 229.24,282.86 116.7,0 180.83,-77.82 189.26,-172.47l146.16 0c-3.14,77.82 -39.97,156.7 -94.62,209.26 -56.79,56.8 -136.73,86.22 -241.86,86.22 -226.1,0 -376.45,-171.41 -376.45,-405.87z"/>
  <path class="fil0" d="M6854.29 556.42l0 -518.4 145.09 0 0 516.32c0,105.13 57.86,158.75 169.3,158.75 106.22,0 166.16,-55.74 166.16,-160.9l0 -514.17 146.16 0 0 518.4c0,185.07 -120.94,277.6 -313.38,277.6 -194.52,0 -313.33,-91.51 -313.33,-277.6z"/>
  <polygon class="fil0" points="7732.22,38.02 7877.31,38.02 7877.31,693.1 8258,693.1 8258,820.34 7732.22,820.34 "/>
  <polygon class="fil0" points="8330.45,38.02 8965.55,38.02 8965.55,163.15 8720.58,163.15 8720.58,820.34 8574.39,820.34 8574.39,163.15 8330.45,163.15 "/>
  <path class="fil0" d="M9173.68 556.42l0 -518.4 145.1 0 0 516.32c0,105.13 57.85,158.75 169.3,158.75 106.22,0 166.16,-55.74 166.16,-160.9l0 -514.17 146.15 0 0 518.4c0,185.07 -120.93,277.6 -313.37,277.6 -194.52,0 -313.34,-91.51 -313.34,-277.6z"/>
  <path class="fil0" d="M10196.73 397.63l189.27 0c91.47,0 139.84,-46.25 139.84,-118.82 0,-77.79 -40.99,-121.99 -134.58,-121.99l-194.53 0 0 240.81zm-145.13 -359.59l369.11 0c146.12,0 251.29,83.04 251.29,219.75 0,93.59 -42.06,160.86 -144.04,193.49l0 3.14c83.08,25.23 113.56,72.57 121.99,169.3 12.59,114.62 13.65,178.72 34.68,189.23l0 7.38 -147.22 0c-19.97,-12.6 -19.97,-73.56 -28.4,-178.72 -8.39,-92.57 -51.5,-132.51 -145.1,-132.51l-167.18 0 0 311.23 -145.13 0 0 -782.29z"/>
  <path class="fil0" d="M11630.79 570.08l146.16 0c10.51,100.96 76.76,151.41 196.64,151.41 85.16,0 155.64,-36.79 155.64,-114.62 0,-84.1 -77.82,-103.04 -201.89,-131.44 -146.19,-32.56 -268.15,-71.47 -268.15,-228.14 0,-148.28 121.96,-222.92 289.17,-222.92 181.9,0 287.06,87.24 301.77,231.31l-141.96 0c-11.57,-76.76 -69.39,-119.87 -161.92,-119.87 -87.28,0 -145.1,36.79 -145.1,98.85 0,72.56 75.71,91.47 196.6,116.7 145.13,31.57 278.66,74.64 278.66,243.98 0,155.61 -130.39,242.89 -303.88,242.89 -214.49,0 -335.42,-108.31 -341.74,-268.15z"/>
 </g>
</svg>
