<?xml version="1.0" encoding="utf-8"?>
<!-- Generator: Adobe Illustrator 16.0.0, SVG Export Plug-In . SVG Version: 6.00 Build 0)  -->
<!DOCTYPE svg PUBLIC "-//W3C//DTD SVG 1.1//EN" "http://www.w3.org/Graphics/SVG/1.1/DTD/svg11.dtd">
<svg version="1.1" id="Layer_1" xmlns="http://www.w3.org/2000/svg" xmlns:xlink="http://www.w3.org/1999/xlink" x="0px" y="0px"
	 width="350.333px" height="145.833px" viewBox="0 0 350.333 145.833" enable-background="new 0 0 350.333 145.833"
	 xml:space="preserve">
<g>
	<path fill="#F8F8F8" d="M2.272,109.48c0.024,0.082,0.053,0.16,0.078,0.242c-0.064-0.313-0.109-0.605-0.169-0.913
		C2.198,109.06,2.218,109.297,2.272,109.48z"/>
	<path fill="#020202" d="M2.181,108.81c-0.03-0.426-0.054-0.89-0.225-1.208C2.026,108,2.102,108.402,2.181,108.81z"/>
	<path fill="#020202" d="M2.358,109.769l0.006-0.001c-0.004-0.016-0.01-0.03-0.015-0.045C2.353,109.738,2.355,109.753,2.358,109.769
		z"/>
	<path fill="#00205F" d="M117.064,93.91c-0.07-0.111-0.141-0.223-0.211-0.335c-0.103,0.083-0.272,0.155-0.289,0.253
		c-0.016,0.098,0.123,0.22,0.193,0.331C116.859,94.076,116.962,93.993,117.064,93.91z"/>
	<path fill="#00205F" d="M246.914,82.546c-0.579,0.048-1.315,0.361-1.96-0.871c5.21-7.952,10.563-16.128,14.518-25.076
		c2.424-5.485,4.604-11.069,4.51-17.21c-0.07-4.645-0.873-9.228-5.371-11.607c-4.721-2.496-9.048-0.424-13.005,2.367
		c-4.271,3.013-7.653,6.928-10.645,11.146c-12.098,17.06-20.193,36.012-24.365,56.363c-2.249,10.97-8.477,18.881-15.423,26.725
		c-1.077,1.217-2.465,2.3-3.921,3.012c-3.689,1.803-6.059,0.201-5.438-3.805c0.428-2.759,1.295-5.522,2.417-8.087
		c3.862-8.827,8.019-17.524,11.875-26.354c3.234-7.404,0.324-11.165-7.836-10.768c-4.292,0.209-5.945,3.15-7.483,6.354
		c-5.467,11.389-10.965,22.762-17.49,33.597c-2.33,3.87-4.941,7.579-9.167,9.604c-5.333,2.556-8.862,0.259-8.92-5.601
		c-0.029-2.894,0.876-5.535,1.847-8.205c3.313-9.119,8.318-17.381,12.939-25.838c1.622-2.969,1.77-5.768-1.017-8.08
		c-4.18-3.469-11.704-1.963-14.131,2.871c-3.878,7.728-7.459,15.607-11.465,23.266c-4.026,7.697-8.818,14.934-15.713,20.424
		c-4.335,3.451-7.514,2.502-8.758-2.877c-1.537-6.646-1.192-13.176,3.523-18.822c11.241-13.458,21.366-27.648,28.002-44.027
		c3.013-7.436,5.604-15.023,4.23-23.249c-1.483-8.876-8.035-11.864-15.786-7.233c-4.531,2.708-7.773,6.744-10.68,11.039
		c-11.615,17.162-19.15,36.094-23.552,56.23c-1.21,5.535-3.872,9.672-7.587,13.597c-9.097,9.608-20.224,15.366-33.003,18.443
		c-21.86,5.265-38.204-8.8-35.443-31.015c2.413-19.42,12.55-34.397,27.868-46.073c6.029-4.595,12.699-7.962,20.459-8.397
		c5.479-0.309,7.168,1.906,5.984,7.305c-1.09,4.968-4.101,9.059-6.06,13.627c-1.055,2.459-2.514,5.004-0.339,7.449
		c2.185,2.457,5.114,2.024,7.915,1.248c6.817-1.891,14.101-10.266,14.729-16.847c0.711-7.45-3.904-14.935-11.838-18.587
		c-9.3-4.281-19.069-5.076-28.693-1.676C29.102,45.223,12.002,60.341,3.177,83.859l-0.041,0.014c0,0-0.276,0.602-0.63,1.763
		c-0.039,0.11-0.084,0.213-0.122,0.323c-0.046,0.133-0.076,0.284-0.098,0.444c-0.145,0.532-0.292,1.16-0.437,1.855
		c-0.821,3.94-1.45,10.478,0.107,19.343c0.171,0.318,0.195,0.782,0.225,1.208c0.06,0.308,0.104,0.601,0.169,0.913
		c0.005,0.015,0.01,0.029,0.015,0.045c4.876,16.258,15.057,27.404,31.409,32.707c0.151,0.049,0.34,0.087,0.538,0.129l0,0.001
		c0,0,0.204,0.056,0.569,0.145c2.884,0.699,16.437,3.6,29.498-0.188c0.004,0.008,0.009,0.017,0.013,0.024
		c0.231-0.102,0.514-0.197,0.918-0.316c10.852-3.201,19.794-9.281,27.191-17.782c1.021-1.173,1.746-2.805,3.532-3.227
		c2.417,12.99,7.008,18.49,15.952,19.539c10.996,1.29,16.557-6.448,22.413-13.938c4.372,10.44,8.307,14.092,15.804,14.461
		c8.562,0.422,13.904-4.518,17.973-11.346c1.462-2.452,2.914-4.91,4.688-7.902c0.333,1.286,0.574,1.752,0.553,2.205
		c-0.313,6.638,1.27,12.58,7.935,15.245c6.784,2.712,12.161-0.651,16.987-5.329c3.777-3.662,6.386-8.236,10.044-12.813
		c0.4,1.411,0.643,2.164,0.827,2.932c3.655,15.227,16.088,21.213,29.608,13.443c14.165-8.141,22.647-21.011,25.618-36.91
		C266.739,88.502,259.483,81.512,246.914,82.546z M136.177,43.687c0.977-1.603,2.275-4.043,4.497-3.032
		c1.787,0.813,0.965,3.295,0.696,5.021c-1.773,11.369-7.197,21.283-12.778,31.074c-3.167,5.555-6.861,10.809-10.318,16.199
		c-0.487-0.205-0.975-0.408-1.462-0.611C122.372,75.773,126.942,58.822,136.177,43.687z M116.853,93.575
		c0.071,0.112,0.141,0.224,0.211,0.335c-0.102,0.083-0.205,0.166-0.307,0.249c-0.07-0.111-0.208-0.233-0.193-0.331
		C116.58,93.73,116.75,93.658,116.853,93.575z M243.882,53.305c1.999-3.83,3.977-7.678,6.688-11.069
		c1.318-1.649,2.914-4.259,4.998-3.16c2.031,1.071,0.768,3.919,0.293,5.938c-1.307,5.543-3.956,10.547-6.557,15.557
		c-5.292,10.192-11.5,19.826-18.02,29.264c-0.802,1.16-1.604,2.551-3.766,2.729C232.405,78.928,237.367,65.791,243.882,53.305z
		 M253.854,101.461c-2.731,8.037-7.464,14.83-13.414,20.761c-3.049,3.038-6.512,6.799-11.189,4.858
		c-4.793-1.987-4.72-7.153-5.228-13.287c-1.059-7.783,13.307-21.824,21.442-22.419C253.112,90.815,256.284,94.309,253.854,101.461z"
		/>
	<g>
		<path fill="#D52B1E" d="M300.184,64.738l2.421-8.896c-4.715-3.058-8.398-7.471-10.57-12.657
			c-2.172-5.188-2.73-10.913-1.603-16.422c1.128-5.512,3.89-10.553,7.924-14.468c4.036-3.915,9.155-6.518,14.692-7.475
			c5.537-0.954,11.232-0.216,16.344,2.12c5.111,2.339,9.398,6.164,12.304,10.977c2.905,4.815,4.292,10.396,3.979,16.012
			c-0.312,5.617-2.309,11.007-5.729,15.471l1.953,6.314c4.324-5.44,6.863-12.091,7.268-19.034
			c0.402-6.942-1.348-13.842-5.014-19.752c-3.665-5.907-9.066-10.537-15.461-13.252c-6.396-2.715-13.473-3.382-20.264-1.914
			s-12.961,5.005-17.666,10.124c-4.704,5.118-7.713,11.566-8.613,18.462c-0.9,6.897,0.35,13.903,3.582,20.06
			c3.232,6.158,8.287,11.163,14.471,14.331"/>
		<path fill="#00205F" d="M344.027,86.738c0,0,0.263,0.45,0.585,0.305c0.322-0.148,0.079-0.589,0.079-0.589l-10.517-40.476
			c0,0-5.146,4.595-7.041,6.423c-2.773,2.688-4.716,5.202-0.977,9.522L344.027,86.738z"/>
		<path fill="#00205F" d="M293.767,115.109c0,0-0.35,0.607-0.889,0.392c-0.536-0.216-0.263-0.84-0.263-0.84l9.257-34.355
			c0.508-1.88,1.16-3.717,1.953-5.496c0.764-0.992,1.605-1.92,2.52-2.777l12.605-11.624c0,0,4.621,3.217,1.779,8.008
			L293.767,115.109z"/>
		<path fill="#00205F" d="M330.015,24.469c0,0-7.363-2.511-9.766-3.236c-5.098-1.525-3.662-5.749-3.662-5.749l2.324-7.332
			c0,0,2.725,0.801,3.506,1.046c4.346,1.367,4.346,2.562,4.912,4.633C328.031,16.385,330.015,24.469,330.015,24.469z"/>
		<path fill="#00205F" d="M341.408,34.587c0.198-0.128,0.353-0.314,0.441-0.53c0.089-0.216,0.11-0.457,0.062-0.686
			c-0.051-0.231-0.168-0.438-0.342-0.599c-0.171-0.161-0.387-0.264-0.62-0.298l-42.691-14.499c-1.095-0.363-1.476,0.117-0.84,1.084
			l13.866,21.275c0.661,1.148,0.881,2.497,0.615,3.792l-5.801,21.824c-0.303,1.122,0.146,1.396,0.977,0.606L341.408,34.587z"/>
	</g>
</g>
</svg>
