<?xml version="1.0" ?>
<!-- Uploaded to: SVG Repo, www.svgrepo.com, Generator: SVG Repo Mixer Tools -->
<svg width="800px" height="800px" viewBox="0 0 512 512" id="Layer_1" version="1.1" xml:space="preserve" xmlns="http://www.w3.org/2000/svg" xmlns:xlink="http://www.w3.org/1999/xlink">
<g id="_x30_22_Cash_Counter">
<g>
<g>
<g>
<rect height="72.264" style="fill:#D3D8D9;" width="46.691" x="109.63" y="91.953"/>
</g>
<g>
<rect height="22.4" style="fill:#A8B1B3;" width="46.68" x="109.641" y="91.96"/>
</g>
<g>
<rect height="28.88" style="fill:#A8B1B3;" width="46.68" x="109.641" y="135.319"/>
</g>
<g>
<path d="M223.59,17.613v70.61c0,7.529-6.085,13.614-13.615,13.614H55.974      c-7.529,0-13.615-6.085-13.615-13.614v-70.61c0-7.529,6.085-13.614,13.615-13.614h154.001      C217.505,3.999,223.59,10.085,223.59,17.613z" style="fill:#A6E1FB;"/>
</g>
<g>
<path d="M223.6,17.599v70.64c0,7.52-6.08,13.6-13.641,13.6h-154c-7.52,0-13.6-6.08-13.6-13.6v-17.24      h75.08c39.56,0,72.359-29.08,78.2-67h14.319C217.52,3.999,223.6,10.079,223.6,17.599z" style="fill:#7AD1F9;"/>
</g>
</g>
<g>
<g>
<path d="M489.681,428.759v69.48c0,5.4-4.36,9.76-9.76,9.76H32.08c-5.399,0-9.76-4.359-9.76-9.76v-69.48      c0-5.4,4.36-9.76,9.76-9.76h447.841C485.32,418.999,489.681,423.359,489.681,428.759z" style="fill:#FEE8B3;"/>
</g>
<g>
<path d="M56.88,507.999h-24.8c-5.399,0-9.76-4.359-9.76-9.76v-69.48c0-5.4,4.36-9.76,9.76-9.76h24.8      c-5.399,0-9.76,4.36-9.76,9.76v69.48C47.12,503.641,51.48,507.999,56.88,507.999z" style="fill:#FFF4D9;"/>
</g>
<g>
<path d="M489.681,428.759v69.48c0,5.4-4.36,9.76-9.76,9.76h-24.8c5.399,0,9.76-4.359,9.76-9.76v-69.48      c0-5.4-4.36-9.76-9.76-9.76h24.8C485.32,418.999,489.681,423.359,489.681,428.759z" style="fill:#FDDD8D;"/>
</g>
<g>
<path d="M469.641,418.986V157.621c0-5.388-4.368-9.756-9.756-9.756H52.117      c-5.388,0-9.756,4.368-9.756,9.756v261.365H469.641z" style="fill:#D3D8D9;"/>
</g>
<g>
<path d="M77.04,147.88c-5.399,0-9.76,4.36-9.76,9.76v261.359H42.36V157.64c0-5.4,4.36-9.76,9.76-9.76      H77.04z" style="fill:#EDEDED;"/>
</g>
<g>
<path d="M469.641,157.641v261.359h-24.92V157.641c0-5.4-4.36-9.76-9.761-9.76h24.92      C465.28,147.88,469.641,152.239,469.641,157.641z" style="fill:#A8B1B3;"/>
</g>
<path d="M479.922,414.999h-6.281V157.62c0-7.582-6.172-13.754-13.758-13.754H160.318v-38.031h49.659     c9.711,0,17.613-7.902,17.613-17.613V17.614c0-9.711-7.902-17.613-17.613-17.613h-154c-9.715,0-17.617,7.902-17.617,17.613     v70.609c0,9.711,7.902,17.613,17.617,17.613h49.66v38.031h-53.52c-7.586,0-13.758,6.172-13.758,13.754v257.379h-6.281     c-7.586,0-13.758,6.172-13.758,13.758v69.48c0,7.59,6.172,13.762,13.758,13.762h447.844c7.586,0,13.758-6.172,13.758-13.762     v-69.48C493.68,421.172,487.508,414.999,479.922,414.999z M55.977,97.836c-5.305,0-9.617-4.313-9.617-9.613V17.614     c0-5.301,4.313-9.613,9.617-9.613h154c5.301,0,9.613,4.313,9.613,9.613v70.609c0,5.301-4.313,9.613-9.613,9.613H55.977z      M152.317,105.836v38.031h-38.681v-38.031H152.317z M46.359,157.62c0-3.172,2.582-5.754,5.758-5.754h407.766     c3.176,0,5.758,2.582,5.758,5.754v257.363H46.36V157.62H46.359z M485.68,498.238c0,3.176-2.582,5.762-5.758,5.762H32.078     c-3.176,0-5.758-2.586-5.758-5.762v-69.48c0-3.176,2.582-5.758,5.758-5.758h447.844c3.176,0,5.758,2.582,5.758,5.758V498.238z" style="fill:#333333;"/>
</g>
<g>
<g>
<g>
<path d="M110.16,309.68c0,8.56-7,15.52-15.56,15.52c-8.561,0-15.521-6.96-15.521-15.52       c0-8.6,6.96-15.56,15.521-15.56C103.16,294.12,110.16,301.079,110.16,309.68z" style="fill:#FB8A8A;"/>
</g>
<g>
<path d="M110.16,362.12c0,8.6-7,15.56-15.56,15.56c-8.561,0-15.521-6.96-15.521-15.56       c0-8.56,6.96-15.52,15.521-15.52C103.16,346.599,110.16,353.559,110.16,362.12z" style="fill:#FB8A8A;"/>
</g>
<g>
<path d="M210.921,204.719c0-8.56,6.959-15.52,15.56-15.52c8.56,0,15.52,6.96,15.52,15.52       s-6.96,15.56-15.52,15.56C217.88,220.279,210.921,213.279,210.921,204.719z" style="fill:#FB8A8A;"/>
</g>
<g>
<path d="M176.08,204.719c0,8.56-6.96,15.56-15.56,15.56c-8.561,0-15.521-7-15.521-15.56       s6.96-15.52,15.521-15.52C169.12,189.2,176.08,196.16,176.08,204.719z" style="fill:#FB8A8A;"/>
</g>
<g>
<path d="M242,362.12c0,8.6-6.96,15.56-15.52,15.56c-8.601,0-15.56-6.96-15.56-15.56       c0-8.56,6.959-15.52,15.56-15.52C235.04,346.599,242,353.559,242,362.12z" style="fill:#FB8A8A;"/>
</g>
<g>
<path d="M242,309.68c0,8.56-6.96,15.52-15.52,15.52c-8.601,0-15.56-6.96-15.56-15.52       c0-8.6,6.959-15.56,15.56-15.56C235.04,294.12,242,301.079,242,309.68z" style="fill:#FB8A8A;"/>
</g>
<g>
<path d="M242,257.2c0,8.56-6.96,15.52-15.52,15.52c-8.601,0-15.56-6.96-15.56-15.52       c0-8.6,6.959-15.56,15.56-15.56C235.04,241.641,242,248.599,242,257.2z" style="fill:#FB8A8A;"/>
</g>
<g>
<path d="M176.08,257.2c0,8.56-6.96,15.52-15.56,15.52c-8.561,0-15.521-6.96-15.521-15.52       c0-8.6,6.96-15.56,15.521-15.56C169.12,241.641,176.08,248.599,176.08,257.2z" style="fill:#FB8A8A;"/>
</g>
<g>
<path d="M110.16,204.719c0,8.56-7,15.56-15.56,15.56c-8.561,0-15.521-7-15.521-15.56       s6.96-15.52,15.521-15.52C103.16,189.2,110.16,196.16,110.16,204.719z" style="fill:#FB8A8A;"/>
</g>
<g>
<path d="M110.16,257.2c0,8.56-7,15.52-15.56,15.52c-8.561,0-15.521-6.96-15.521-15.52       c0-8.6,6.96-15.56,15.521-15.56C103.16,241.641,110.16,248.599,110.16,257.2z" style="fill:#FB8A8A;"/>
</g>
<g>
<path d="M176.08,362.12c0,8.6-6.96,15.56-15.56,15.56c-8.561,0-15.521-6.96-15.521-15.56       c0-8.56,6.96-15.52,15.521-15.52C169.12,346.599,176.08,353.559,176.08,362.12z" style="fill:#FB8A8A;"/>
</g>
<g>
<path d="M176.08,309.68c0,8.56-6.96,15.52-15.56,15.52c-8.561,0-15.521-6.96-15.521-15.52       c0-8.6,6.96-15.56,15.521-15.56C169.12,294.12,176.08,301.079,176.08,309.68z" style="fill:#FB8A8A;"/>
</g>
</g>
</g>
<g>
<g>
<g>
<path d="M110.16,309.68c0,8.56-7,15.52-15.56,15.52c-6.76,0-12.48-4.32-14.601-10.36       c1.601,0.56,3.32,0.88,5.12,0.88c8.561,0,15.561-6.96,15.561-15.52c0-1.8-0.32-3.56-0.92-5.2       C105.8,297.16,110.16,302.92,110.16,309.68z" style="fill:#F96363;"/>
</g>
<g>
<path d="M110.16,362.12c0,8.6-7,15.56-15.56,15.56c-6.76,0-12.48-4.32-14.601-10.36       c1.601,0.56,3.32,0.88,5.12,0.88c8.561,0,15.561-6.96,15.561-15.56c0-1.8-0.32-3.561-0.92-5.16       C105.8,349.641,110.16,355.359,110.16,362.12z" style="fill:#F96363;"/>
</g>
<g>
<path d="M242,204.719c0,8.56-6.96,15.56-15.52,15.56c-6.76,0-12.521-4.36-14.64-10.4       c1.6,0.6,3.359,0.92,5.159,0.92c8.561,0,15.521-7,15.521-15.56c0-1.8-0.32-3.52-0.92-5.12       C237.641,192.2,242,197.96,242,204.719z" style="fill:#F96363;"/>
</g>
<g>
<path d="M176.08,204.719c0,8.56-6.96,15.56-15.56,15.56c-6.76,0-12.48-4.36-14.6-10.4       c1.6,0.6,3.319,0.92,5.119,0.92c8.601,0,15.561-7,15.561-15.56c0-1.8-0.32-3.52-0.92-5.12       C171.721,192.2,176.08,197.96,176.08,204.719z" style="fill:#F96363;"/>
</g>
<g>
<path d="M242,362.12c0,8.6-6.96,15.56-15.52,15.56c-6.76,0-12.521-4.32-14.64-10.36       c1.6,0.56,3.359,0.88,5.159,0.88c8.561,0,15.521-6.96,15.521-15.56c0-1.8-0.32-3.561-0.92-5.16       C237.641,349.599,242,355.359,242,362.12z" style="fill:#F96363;"/>
</g>
<g>
<path d="M242,309.68c0,8.56-6.96,15.52-15.52,15.52c-6.76,0-12.521-4.32-14.64-10.36       c1.6,0.56,3.359,0.88,5.159,0.88c8.561,0,15.521-6.96,15.521-15.52c0-1.8-0.32-3.56-0.92-5.2       C237.641,297.12,242,302.88,242,309.68z" style="fill:#F96363;"/>
</g>
<g>
<path d="M242,257.2c0,8.56-6.96,15.52-15.52,15.52c-6.76,0-12.521-4.32-14.64-10.36       c1.6,0.56,3.359,0.88,5.159,0.88c8.561,0,15.521-6.96,15.521-15.52c0-1.8-0.32-3.56-0.92-5.2       C237.641,244.641,242,250.4,242,257.2z" style="fill:#F96363;"/>
</g>
<g>
<path d="M176.08,257.2c0,8.56-6.96,15.52-15.56,15.52c-6.76,0-12.48-4.32-14.6-10.36       c1.6,0.56,3.319,0.88,5.119,0.88c8.601,0,15.561-6.96,15.561-15.52c0-1.8-0.32-3.56-0.92-5.2       C171.721,244.641,176.08,250.4,176.08,257.2z" style="fill:#F96363;"/>
</g>
<g>
<path d="M110.16,204.719c0,8.56-7,15.56-15.56,15.56c-6.76,0-12.48-4.36-14.601-10.4       c1.601,0.6,3.32,0.92,5.12,0.92c8.561,0,15.561-7,15.561-15.56c0-1.8-0.32-3.52-0.92-5.12       C105.8,192.239,110.16,197.96,110.16,204.719z" style="fill:#F96363;"/>
</g>
<g>
<path d="M110.16,257.2c0,8.56-7,15.52-15.56,15.52c-6.76,0-12.48-4.32-14.601-10.36       c1.601,0.56,3.32,0.88,5.12,0.88c8.561,0,15.561-6.96,15.561-15.52c0-1.8-0.32-3.56-0.92-5.2       C105.8,244.68,110.16,250.44,110.16,257.2z" style="fill:#F96363;"/>
</g>
<g>
<path d="M176.08,362.12c0,8.6-6.96,15.56-15.56,15.56c-6.76,0-12.48-4.32-14.6-10.36       c1.6,0.56,3.319,0.88,5.119,0.88c8.601,0,15.561-6.96,15.561-15.56c0-1.8-0.32-3.561-0.92-5.16       C171.721,349.599,176.08,355.359,176.08,362.12z" style="fill:#F96363;"/>
</g>
<g>
<path d="M176.08,309.68c0,8.56-6.96,15.52-15.56,15.52c-6.76,0-12.48-4.32-14.6-10.36       c1.6,0.56,3.319,0.88,5.119,0.88c8.601,0,15.561-6.96,15.561-15.52c0-1.8-0.32-3.56-0.92-5.2       C171.721,297.12,176.08,302.88,176.08,309.68z" style="fill:#F96363;"/>
</g>
</g>
</g>
<g>
<g>
<g>
<path d="M94.602,329.2c-10.766,0-19.523-8.758-19.523-19.52c0-10.785,8.758-19.559,19.523-19.559       c10.785,0,19.559,8.773,19.559,19.559C114.16,320.442,105.387,329.2,94.602,329.2z M94.602,298.12       c-6.355,0-11.523,5.184-11.523,11.559c0,6.352,5.168,11.52,11.523,11.52c6.375,0,11.559-5.168,11.559-11.52       C106.16,303.305,100.977,298.12,94.602,298.12z" style="fill:#333333;"/>
</g>
<g>
<path d="M94.602,381.68c-10.766,0-19.523-8.773-19.523-19.559c0-10.762,8.758-19.52,19.523-19.52       c10.785,0,19.559,8.758,19.559,19.52C114.16,372.906,105.387,381.68,94.602,381.68z M94.602,350.601       c-6.355,0-11.523,5.168-11.523,11.52c0,6.375,5.168,11.559,11.523,11.559c6.375,0,11.559-5.184,11.559-11.559       C106.16,355.769,100.977,350.601,94.602,350.601z" style="fill:#333333;"/>
</g>
<g>
<path d="M226.48,224.281c-10.785,0-19.559-8.777-19.559-19.563c0-10.762,8.773-19.52,19.559-19.52       c10.762,0,19.52,8.758,19.52,19.52C246,215.504,237.242,224.281,226.48,224.281z M226.48,193.2       c-6.375,0-11.559,5.168-11.559,11.52c0,6.375,5.184,11.563,11.559,11.563c6.352,0,11.52-5.188,11.52-11.563       C238,198.368,232.832,193.2,226.48,193.2z" style="fill:#333333;"/>
</g>
<g>
<path d="M160.52,224.281c-10.762,0-19.52-8.777-19.52-19.563c0-10.762,8.758-19.52,19.52-19.52       c10.785,0,19.559,8.758,19.559,19.52C180.078,215.504,171.305,224.281,160.52,224.281z M160.52,193.2       c-6.352,0-11.52,5.168-11.52,11.52c0,6.375,5.168,11.563,11.52,11.563c6.375,0,11.559-5.188,11.559-11.563       C172.078,198.368,166.895,193.2,160.52,193.2z" style="fill:#333333;"/>
</g>
<g>
<path d="M226.48,381.68c-10.785,0-19.559-8.773-19.559-19.559c0-10.762,8.773-19.52,19.559-19.52       c10.762,0,19.52,8.758,19.52,19.52C246,372.906,237.242,381.68,226.48,381.68z M226.48,350.601       c-6.375,0-11.559,5.168-11.559,11.52c0,6.375,5.184,11.559,11.559,11.559c6.352,0,11.52-5.184,11.52-11.559       C238,355.769,232.832,350.601,226.48,350.601z" style="fill:#333333;"/>
</g>
<g>
<path d="M226.48,329.2c-10.785,0-19.559-8.758-19.559-19.52c0-10.785,8.773-19.559,19.559-19.559       c10.762,0,19.52,8.773,19.52,19.559C246,320.442,237.242,329.2,226.48,329.2z M226.48,298.12       c-6.375,0-11.559,5.184-11.559,11.559c0,6.352,5.184,11.52,11.559,11.52c6.352,0,11.52-5.168,11.52-11.52       C238,303.305,232.832,298.12,226.48,298.12z" style="fill:#333333;"/>
</g>
<g>
<path d="M226.48,276.718c-10.785,0-19.559-8.758-19.559-19.52c0-10.785,8.773-19.559,19.559-19.559       c10.762,0,19.52,8.773,19.52,19.559C246,267.961,237.242,276.718,226.48,276.718z M226.48,245.641       c-6.375,0-11.559,5.184-11.559,11.559c0,6.352,5.184,11.52,11.559,11.52c6.352,0,11.52-5.168,11.52-11.52       C238,250.825,232.832,245.641,226.48,245.641z" style="fill:#333333;"/>
</g>
<g>
<path d="M160.52,276.718c-10.762,0-19.52-8.758-19.52-19.52c0-10.785,8.758-19.559,19.52-19.559       c10.785,0,19.559,8.773,19.559,19.559C180.078,267.961,171.305,276.718,160.52,276.718z M160.52,245.641       c-6.352,0-11.52,5.184-11.52,11.559c0,6.352,5.168,11.52,11.52,11.52c6.375,0,11.559-5.168,11.559-11.52       C172.078,250.825,166.895,245.641,160.52,245.641z" style="fill:#333333;"/>
</g>
<g>
<path d="M94.602,224.281c-10.766,0-19.523-8.777-19.523-19.563c0-10.762,8.758-19.52,19.523-19.52       c10.785,0,19.559,8.758,19.559,19.52C114.16,215.504,105.387,224.281,94.602,224.281z M94.602,193.2       c-6.355,0-11.523,5.168-11.523,11.52c0,6.375,5.168,11.563,11.523,11.563c6.375,0,11.559-5.188,11.559-11.563       C106.16,198.368,100.977,193.2,94.602,193.2z" style="fill:#333333;"/>
</g>
<g>
<path d="M94.602,276.718c-10.766,0-19.523-8.758-19.523-19.52c0-10.785,8.758-19.559,19.523-19.559       c10.785,0,19.559,8.773,19.559,19.559C114.16,267.961,105.387,276.718,94.602,276.718z M94.602,245.641       c-6.355,0-11.523,5.184-11.523,11.559c0,6.352,5.168,11.52,11.523,11.52c6.375,0,11.559-5.168,11.559-11.52       C106.16,250.825,100.977,245.641,94.602,245.641z" style="fill:#333333;"/>
</g>
<g>
<path d="M160.52,381.68c-10.762,0-19.52-8.773-19.52-19.559c0-10.762,8.758-19.52,19.52-19.52       c10.785,0,19.559,8.758,19.559,19.52C180.078,372.906,171.305,381.68,160.52,381.68z M160.52,350.601       c-6.352,0-11.52,5.168-11.52,11.52c0,6.375,5.168,11.559,11.52,11.559c6.375,0,11.559-5.184,11.559-11.559       C172.078,355.769,166.895,350.601,160.52,350.601z" style="fill:#333333;"/>
</g>
<g>
<path d="M160.52,329.2c-10.762,0-19.52-8.758-19.52-19.52c0-10.785,8.758-19.559,19.52-19.559       c10.785,0,19.559,8.773,19.559,19.559C180.078,320.442,171.305,329.2,160.52,329.2z M160.52,298.12       c-6.352,0-11.52,5.184-11.52,11.559c0,6.352,5.168,11.52,11.52,11.52c6.375,0,11.559-5.168,11.559-11.52       C172.078,303.305,166.895,298.12,160.52,298.12z" style="fill:#333333;"/>
</g>
</g>
</g>
<g>
<polygon points="429.88,212.92 429.88,353.92 296.841,353.92 296.841,212.92 319,226.96 341.16,212.92      363.32,226.96 385.48,212.92 407.681,226.96    " style="fill:#FFFFFF;"/>
</g>
<g>
<path d="M429.88,212.92v141H296.841v-27.44h60.8c26.92,0,48.72-21.8,48.72-48.72v-51.64l1.32,0.84     L429.88,212.92z" style="fill:#EDEDED;"/>
</g>
<path d="M441.641,349.922h-7.762V212.918c0-1.457-0.793-2.801-2.07-3.504s-2.84-0.664-4.066,0.125    l-20.063,12.688l-20.063-12.688c-1.305-0.828-2.973-0.828-4.277,0l-20.02,12.688l-20.02-12.688c-1.305-0.828-2.977-0.828-4.281,0    l-20.02,12.688l-20.02-12.688c-1.234-0.785-2.789-0.832-4.07-0.125c-1.277,0.703-2.07,2.047-2.07,3.504v137.004h-7.777    c-2.211,0-4,1.789-4,4s1.789,4,4,4H441.64c2.211,0,4-1.789,4-4S443.852,349.922,441.641,349.922z M300.84,220.187l16.02,10.152    c1.305,0.828,2.977,0.828,4.281,0l20.02-12.688l20.02,12.688c1.305,0.828,2.977,0.828,4.281,0l20.02-12.688l20.063,12.688    c1.305,0.828,2.969,0.828,4.273,0l16.063-10.16v129.738H300.842v-129.73H300.84z" style="fill:#333333;"/>
<g>
<path d="M273.332,463.484c0,9.592-7.773,17.365-17.332,17.365c-9.559,0-17.332-7.773-17.332-17.365     c0-9.559,7.773-17.333,17.332-17.333C265.56,446.151,273.332,453.924,273.332,463.484z" style="fill:#7BDE9E;"/>
</g>
<g>
<path d="M273.32,463.479c0,9.6-7.76,17.36-17.32,17.36c-7.479,0-13.88-4.76-16.279-11.44     c1.84,0.68,3.84,1.04,5.88,1.04c9.56,0,17.32-7.8,17.32-17.36c0-2.04-0.36-4.04-1.041-5.88     C268.56,449.599,273.32,455.999,273.32,463.479z" style="fill:#50D27E;"/>
</g>
<g>
<path d="M256,484.848c-11.762,0-21.332-9.582-21.332-21.363c0-11.762,9.57-21.332,21.332-21.332     s21.332,9.57,21.332,21.332C277.332,475.266,267.762,484.848,256,484.848z M256,450.152c-7.352,0-13.332,5.98-13.332,13.332     c0,7.367,5.98,13.363,13.332,13.363s13.332-5.996,13.332-13.363C269.332,456.132,263.352,450.152,256,450.152z" style="fill:#333333;"/>
</g>
</g>
</g>
</svg>