<?xml version="1.0" encoding="UTF-8"?>
<!DOCTYPE svg PUBLIC "-//W3C//DTD SVG 1.1//EN" "http://www.w3.org/Graphics/SVG/1.1/DTD/svg11.dtd">
<!-- Creator: CorelDRAW 2026 -->
<svg xmlns="http://www.w3.org/2000/svg" xml:space="preserve" width="15.0834mm" height="15.0974mm" version="1.1" style="shape-rendering:geometricPrecision; text-rendering:geometricPrecision; image-rendering:optimizeQuality; fill-rule:evenodd; clip-rule:evenodd"
viewBox="0 0 1508.34 1509.74"
 xmlns:xlink="http://www.w3.org/1999/xlink"
 xmlns:xodm="http://www.corel.com/coreldraw/odm/2003">
 <defs>
  <style type="text/css">
   <![CDATA[
    .fil0 {fill:gray;fill-rule:nonzero}
   ]]>
  </style>
 </defs>
 <g id="Capa_x0020_1">
  <metadata id="CorelCorpID_0Corel-Layer"/>
  <path class="fil0" d="M562.78 679.9l528.43 0 -528.43 0zm-252.87 -528.39l1113.44 0c28.93,0 50.94,12.88 66.04,38.66 15.1,25.79 15.73,51.9 1.87,78.32l-267.97 483.13c-13.83,25.15 -32.39,44.66 -55.67,58.49 -23.28,13.83 -48.75,20.78 -76.41,20.78l-562.4 0 -83.04 150.95 905.86 0 0 150.99 -905.86 0c-56.63,0 -99.38,-24.87 -128.31,-74.54 -28.96,-49.71 -30.2,-99.1 -3.77,-148.17l101.88 -184.92 -271.75 -573.69 -150.95 0 0 -150.99 245.32 0 71.72 150.99zm71.72 150.95l181.15 377.44 528.43 0 207.57 -377.44 -917.15 0zm819.01 1207.81c-41.52,0 -77.05,-14.78 -106.61,-44.38 -29.56,-29.56 -44.34,-65.09 -44.34,-106.61 0,-41.52 14.78,-77.05 44.34,-106.61 29.56,-29.6 65.09,-44.38 106.61,-44.38 41.52,0 77.08,14.78 106.64,44.38 29.57,29.56 44.35,65.09 44.35,106.61 0,41.52 -14.78,77.05 -44.35,106.61 -29.56,29.6 -65.12,44.38 -106.64,44.38zm-754.87 0c-41.53,0 -77.05,-14.78 -106.61,-44.38 -29.57,-29.56 -44.35,-65.09 -44.35,-106.61 0,-41.52 14.78,-77.05 44.35,-106.61 29.56,-29.6 65.08,-44.38 106.61,-44.38 41.52,0 77.08,14.78 106.64,44.38 29.56,29.56 44.34,65.09 44.34,106.61 0,41.52 -14.78,77.05 -44.34,106.61 -29.56,29.6 -65.12,44.38 -106.64,44.38z"/>
 </g>
</svg>
