<?xml version="1.0" encoding="UTF-8"?>
<!DOCTYPE svg PUBLIC "-//W3C//DTD SVG 1.1//EN" "http://www.w3.org/Graphics/SVG/1.1/DTD/svg11.dtd">
<!-- Creator: CorelDRAW 2026 -->
<svg xmlns="http://www.w3.org/2000/svg" xml:space="preserve" width="14.988mm" height="17.1292mm" version="1.1" style="shape-rendering:geometricPrecision; text-rendering:geometricPrecision; image-rendering:optimizeQuality; fill-rule:evenodd; clip-rule:evenodd"
viewBox="0 0 1498.8 1712.92"
 xmlns:xlink="http://www.w3.org/1999/xlink"
 xmlns:xodm="http://www.corel.com/coreldraw/odm/2003">
 <defs>
  <style type="text/css">
   <![CDATA[
    .fil0 {fill:gray;fill-rule:nonzero}
   ]]>
  </style>
 </defs>
 <g id="Capa_x0020_1">
  <metadata id="CorelCorpID_0Corel-Layer"/>
  <path class="fil0" d="M1486.34 1445.33l-128.66 -204.26c-59.44,-94.3 -90.84,-202.28 -90.84,-312.21l0 -178.93c0,-225.88 -158.29,-416.95 -374.72,-478.54l0 -128.13c0,-78.7 -67.21,-142.73 -149.9,-142.73 -82.65,0 -149.86,64.03 -149.86,142.73l0 128.13c-216.43,61.59 -374.72,252.66 -374.72,478.54l0 178.93c0,109.93 -31.4,217.84 -90.77,312.14l-128.66 204.26c-6.95,11.07 -7.12,24.76 -0.45,35.98 6.66,11.18 19.05,18.13 32.52,18.13l1423.92 0c13.47,0 25.93,-6.95 32.59,-18.06 6.67,-11.15 6.46,-24.98 -0.45,-35.98z"/>
  <path class="fil0" d="M506.25 1570.73c42.26,84.07 131.76,142.73 236,142.73 104.21,0 193.71,-58.66 235.98,-142.73l-471.98 0z"/>
 </g>
</svg>
