<?xml version="1.0" encoding="UTF-8"?>
<!DOCTYPE svg PUBLIC "-//W3C//DTD SVG 1.1//EN" "http://www.w3.org/Graphics/SVG/1.1/DTD/svg11.dtd">
<!-- Creator: CorelDRAW 2026 -->
<svg xmlns="http://www.w3.org/2000/svg" xml:space="preserve" width="16.3232mm" height="16.3232mm" version="1.1" style="shape-rendering:geometricPrecision; text-rendering:geometricPrecision; image-rendering:optimizeQuality; fill-rule:evenodd; clip-rule:evenodd"
viewBox="0 0 1632.32 1632.32"
 xmlns:xlink="http://www.w3.org/1999/xlink"
 xmlns:xodm="http://www.corel.com/coreldraw/odm/2003">
 <defs>
  <style type="text/css">
   <![CDATA[
    .fil0 {fill:gray;fill-rule:nonzero}
   ]]>
  </style>
 </defs>
 <g id="Capa_x0020_1">
  <metadata id="CorelCorpID_0Corel-Layer"/>
  <path class="fil0" d="M663.96 1110.09c-242.15,0 -438.47,-196.28 -438.47,-438.43 0,-242.18 196.32,-438.47 438.47,-438.47 242.14,0 438.43,196.29 438.43,438.47 0,242.15 -196.29,438.43 -438.43,438.43zm921.28 289.91l-354.62 -354.61c-1.9,-1.87 -4.09,-3.17 -6.06,-4.94 69.77,-105.87 110.49,-232.55 110.49,-368.79 0,-370.66 -300.47,-671.13 -671.09,-671.13 -370.63,0 -671.09,300.47 -671.09,671.13 0,370.63 300.46,671.09 671.09,671.09 136.24,0 262.96,-40.75 368.79,-110.53 1.76,1.98 3.07,4.2 4.94,6.07l354.61 354.61c53.27,53.27 139.67,53.27 192.94,0 53.26,-53.27 53.26,-139.63 0,-192.9z"/>
 </g>
</svg>
